<?xml version="1.0" encoding="UTF-8"?>
<!DOCTYPE svg PUBLIC "-//W3C//DTD SVG 1.1//EN" "http://www.w3.org/Graphics/SVG/1.1/DTD/svg11.dtd">
<!-- Creator: CorelDRAW X7 -->
<svg xmlns="http://www.w3.org/2000/svg" xml:space="preserve" width="5.82677in" height="8.26772in" version="1.1" style="shape-rendering:geometricPrecision; text-rendering:geometricPrecision; image-rendering:optimizeQuality; fill-rule:evenodd; clip-rule:evenodd"
viewBox="0 0 5827 8268"
 xmlns:xlink="http://www.w3.org/1999/xlink">
 <defs>
  <style type="text/css">
   <![CDATA[
    .str0 {stroke:#FBFCFE;stroke-width:6.94488}
    .fil1 {fill:#038CFF}
    .fil2 {fill:#6DC3FF}
    .fil0 {fill:#FBFCFE}
   ]]>
  </style>
 </defs>
 <g id="Layer_x0020_1">
  <metadata id="CorelCorpID_0Corel-Layer"/>
  <g id="_526082776">
   <path class="fil0 str0" d="M1352 2803l884 0c36,0 66,30 66,66l0 887c0,36 -30,66 -66,66l-884 0c-36,0 -66,-30 -66,-66l0 -887c0,-36 30,-66 66,-66z"/>
   <path class="fil1" d="M1300 3657l-3 -786c1,-30 19,-47 53,-52l418 -2c-168,202 -326,472 -468,840z"/>
   <path class="fil1" d="M2074 3809l-524 3c61,-357 135,-658 318,-769 37,-29 45,16 48,24 79,227 118,469 158,742z"/>
   <path class="fil2" d="M1550 3812l-194 0c-33,-5 -52,-19 -52,-45 110,-305 223,-543 340,-739 107,-146 203,-190 272,39 -9,-38 -28,-44 -56,-20 -142,80 -244,341 -310,765z"/>
  </g>
 </g>
</svg>
