<?xml version="1.0" encoding="UTF-8"?>
<!DOCTYPE svg PUBLIC "-//W3C//DTD SVG 1.1//EN" "http://www.w3.org/Graphics/SVG/1.1/DTD/svg11.dtd">
<!-- Creator: CorelDRAW X7 -->
<svg xmlns="http://www.w3.org/2000/svg" xml:space="preserve" width="5.82677in" height="8.26772in" version="1.1" style="shape-rendering:geometricPrecision; text-rendering:geometricPrecision; image-rendering:optimizeQuality; fill-rule:evenodd; clip-rule:evenodd"
viewBox="0 0 5827 8268"
 xmlns:xlink="http://www.w3.org/1999/xlink">
 <defs>
  <style type="text/css">
   <![CDATA[
    .fil0 {fill:black}
    .fil1 {fill:#373435;fill-rule:nonzero}
   ]]>
  </style>
 </defs>
 <g id="Layer_x0020_1">
  <metadata id="CorelCorpID_0Corel-Layer"/>
  <path class="fil0" d="M771 2067c327,0 592,266 592,593 0,327 -265,592 -592,592 -327,0 -592,-265 -592,-592 0,-327 265,-593 592,-593zm-242 329l206 1 -135 215 -216 0 145 -216zm241 19l61 100 61 99 -122 0 -121 0 61 -99 60 -100zm245 -18l-206 2 134 215 217 0 -145 -217zm141 262l-210 -1 -125 331 335 -330zm-253 -1l-259 -1 129 352 130 -351zm-516 1l210 0 125 331 -335 -331z"/>
  <path class="fil1" d="M1793 3006l296 -644 112 0 314 644 -116 0 -89 -195 -325 0 -84 195 -108 0zm222 -264l263 0 -81 -179c-24,-54 -42,-99 -55,-134 -11,42 -25,83 -43,124l-84 189zm568 264l0 -466 85 0 0 71c22,-33 42,-55 61,-65 18,-11 38,-16 60,-16 32,0 65,8 98,25l-34 73c-23,-11 -46,-16 -69,-16 -20,0 -39,5 -55,15 -17,11 -28,25 -35,43 -11,28 -16,59 -16,93l0 243 -95 0zm566 -70l13 70c-27,4 -51,7 -72,7 -34,0 -61,-5 -80,-14 -18,-9 -32,-21 -39,-36 -8,-15 -12,-46 -12,-93l0 -269 -70 0 0 -61 70 0 0 -116 95 -47 0 163 95 0 0 61 -95 0 0 273c0,23 1,37 5,44 3,6 8,11 16,15 8,4 18,6 32,6 11,0 25,-1 42,-3zm91 70l0 -644 95 0 0 644 -95 0zm607 -58c-36,25 -69,43 -102,53 -32,10 -67,15 -105,15 -61,0 -108,-12 -141,-37 -33,-25 -50,-57 -50,-96 0,-23 6,-43 19,-62 12,-19 29,-34 49,-46 20,-11 43,-20 68,-25 19,-5 47,-8 84,-12 77,-8 134,-17 170,-27 0,-11 0,-18 0,-21 0,-32 -9,-55 -27,-68 -24,-18 -60,-27 -108,-27 -45,0 -78,7 -99,20 -21,13 -37,36 -47,69l-93 -10c9,-33 23,-60 42,-81 19,-20 47,-36 84,-47 36,-11 79,-16 127,-16 48,0 87,4 117,14 30,9 52,21 66,35 14,14 24,32 29,54 3,14 5,38 5,73l0 105c0,73 2,119 6,139 4,20 12,38 23,56l-99 0c-10,-16 -16,-36 -18,-58zm-8 -175c-34,11 -86,21 -155,29 -39,5 -67,10 -83,16 -16,6 -28,14 -37,26 -9,11 -14,23 -14,37 0,21 10,38 29,52 19,14 47,21 84,21 37,0 69,-6 98,-20 28,-13 49,-31 62,-54 11,-18 16,-44 16,-79l0 -28zm242 233l0 -466 85 0 0 66c41,-51 100,-76 177,-76 34,0 65,5 93,15 28,10 49,23 63,40 15,16 24,35 30,58 3,15 5,40 5,77l0 286 -95 0 0 -283c0,-32 -3,-57 -11,-72 -7,-16 -20,-29 -39,-39 -18,-9 -40,-14 -66,-14 -40,0 -75,11 -104,32 -29,21 -44,62 -44,122l0 254 -94 0zm805 -70l12 70c-26,4 -50,7 -71,7 -34,0 -61,-5 -80,-14 -19,-9 -32,-21 -40,-36 -7,-15 -11,-46 -11,-93l0 -269 -70 0 0 -61 70 0 0 -116 95 -47 0 163 95 0 0 61 -95 0 0 273c0,23 1,37 5,44 3,6 8,11 16,15 7,4 18,6 32,6 11,0 24,-1 42,-3zm93 -484l0 -90 95 0 0 90 -95 0zm0 554l0 -466 95 0 0 466 -95 0zm202 -139l93 -13c6,32 20,56 44,73 24,16 58,25 101,25 44,0 76,-8 97,-23 21,-14 32,-32 32,-52 0,-17 -9,-32 -28,-42 -14,-7 -46,-16 -97,-27 -70,-14 -118,-27 -144,-37 -27,-11 -48,-26 -61,-45 -14,-18 -21,-39 -21,-62 0,-21 6,-40 17,-58 11,-17 27,-32 46,-44 15,-9 35,-17 61,-23 25,-6 52,-9 81,-9 44,0 82,5 115,16 34,10 58,25 74,43 16,18 26,42 32,72l-92 11c-4,-24 -17,-43 -37,-57 -20,-14 -48,-20 -85,-20 -43,0 -74,6 -93,18 -18,11 -28,26 -28,42 0,10 4,19 12,27 8,9 20,16 36,21 10,3 37,10 84,21 66,14 113,27 140,36 26,10 47,24 62,42 15,18 23,40 23,67 0,26 -9,51 -28,74 -18,24 -45,42 -79,54 -35,13 -75,19 -118,19 -73,0 -128,-12 -166,-37 -38,-25 -63,-63 -73,-112z"/>
 </g>
</svg>
