<?xml version="1.0" encoding="UTF-8"?>
<!DOCTYPE svg PUBLIC "-//W3C//DTD SVG 1.1//EN" "http://www.w3.org/Graphics/SVG/1.1/DTD/svg11.dtd">
<!-- Creator: CorelDRAW X7 -->
<svg xmlns="http://www.w3.org/2000/svg" xml:space="preserve" width="5.82677in" height="8.26772in" version="1.1" style="shape-rendering:geometricPrecision; text-rendering:geometricPrecision; image-rendering:optimizeQuality; fill-rule:evenodd; clip-rule:evenodd"
viewBox="0 0 5827 8268"
 xmlns:xlink="http://www.w3.org/1999/xlink">
 <defs>
  <style type="text/css">
   <![CDATA[
    .fil0 {fill:#010101}
    .fil3 {fill:#5D5D5D}
    .fil1 {fill:#888888}
    .fil2 {fill:#CCCCCC}
   ]]>
  </style>
 </defs>
 <g id="Layer_x0020_1">
  <metadata id="CorelCorpID_0Corel-Layer"/>
  <g id="_526287080">
   <path class="fil0" d="M2727 5763l170 8 21 -27c38,-171 95,-350 139,-526 210,-831 442,-2128 294,-2960 -69,-387 -190,-645 -397,-948l-266 -2c-39,68 -90,134 -130,206 -350,638 -347,1271 -275,1999 69,702 200,1307 374,1975 18,69 66,213 70,275z"/>
   <path class="fil0" d="M3874 2866c0,901 -366,1806 -748,2587 -47,95 -131,234 -164,322 112,1 55,-2 150,-124 207,-263 592,-923 734,-1202 315,-623 712,-1504 432,-2251 -170,-456 -669,-887 -1154,-874 239,172 401,335 537,600 139,270 213,595 213,942z"/>
   <path class="fil0" d="M2449 1331c-239,6 -464,137 -608,245 -1059,792 -408,2182 80,3101 99,187 210,374 317,540 60,93 112,175 171,263l180 249 27 45 59 -17 -250 -493c-407,-830 -835,-2109 -567,-3026 56,-191 146,-373 245,-512 74,-106 275,-313 379,-372 0,-18 -3,-13 16,-10 33,-52 -22,37 13,-26l-16 1c-13,19 7,2 -22,11 -17,5 -1,1 -24,1z"/>
   <path class="fil0" d="M3999 1563c84,88 184,104 389,391 399,557 199,1352 -34,1901 -235,553 -548,1026 -899,1472 -126,161 -204,239 -326,374 -26,30 -29,26 -40,61 128,-75 398,-399 518,-529 36,-39 63,-73 96,-114 62,-79 125,-155 185,-239 60,-86 114,-156 172,-239 62,-89 111,-165 167,-256 321,-521 684,-1272 543,-1923 -45,-211 -167,-444 -280,-554 -105,-101 -309,-298 -489,-353l-15 -13 -10 -1 2 9 21 13zm-925 4196c-2,1 5,2 5,5 0,1 2,2 2,2 0,0 19,-30 -7,-7z"/>
   <path class="fil0" d="M1678 1534l14 7 13 -17 -5 -4 -22 14zm891 4241c0,0 -449,-529 -538,-651 -31,-43 -47,-76 -82,-119 -37,-46 -47,-71 -81,-119 -507,-712 -1207,-2080 -607,-2945 197,-283 358,-336 414,-399 -144,34 -440,271 -503,344 -508,589 -350,1311 -54,1947 91,194 191,385 296,550l350 507c59,80 303,387 381,464 78,78 356,390 424,421z"/>
   <path class="fil0" d="M2909 5989c-409,0 -362,-14 -365,316 -1,210 96,174 287,174 209,0 270,30 269,-197 -1,-215 41,-293 -191,-293z"/>
   <polygon class="fil1" points="2727,5763 2740,5781 2909,5782 2918,5744 2897,5771 "/>
   <path class="fil1" d="M2675 5757l-59 17 -27 -45c26,61 9,56 97,51 3,-48 3,-4 -11,-23z"/>
   <path class="fil2" d="M1692 1541c45,-17 24,-5 41,-35 -53,4 -6,-3 -28,18l-13 17zm-14 -7l22 -14c-28,-6 -22,-12 -22,14z"/>
   <path class="fil3" d="M3978 1550l21 13 -21 -13 -2 -9c-23,-21 -11,-15 -47,-21 19,20 -14,-2 18,19 21,14 8,6 31,11zm8 -8l15 13c0,-17 4,-12 -15,-13z"/>
   <path class="fil1" d="M2495 1319l-46 12c23,0 7,4 24,-1 29,-9 9,8 22,-11zm-13 35l16 -10c7,-4 28,-16 30,-17l-17 -9c-35,63 20,-26 -13,26 -19,-3 -16,-8 -16,10z"/>
  </g>
 </g>
</svg>
