<?xml version="1.0" encoding="UTF-8"?>
<!DOCTYPE svg PUBLIC "-//W3C//DTD SVG 1.1//EN" "http://www.w3.org/Graphics/SVG/1.1/DTD/svg11.dtd">
<!-- Creator: CorelDRAW X7 -->
<svg xmlns="http://www.w3.org/2000/svg" xml:space="preserve" width="5.82677in" height="8.26772in" version="1.1" style="shape-rendering:geometricPrecision; text-rendering:geometricPrecision; image-rendering:optimizeQuality; fill-rule:evenodd; clip-rule:evenodd"
viewBox="0 0 5827 8268"
 xmlns:xlink="http://www.w3.org/1999/xlink">
 <defs>
  <style type="text/css">
   <![CDATA[
    .fil1 {fill:#32442A}
    .fil0 {fill:#8DF009}
   ]]>
  </style>
 </defs>
 <g id="Layer_x0020_1">
  <metadata id="CorelCorpID_0Corel-Layer"/>
  <g id="_419106936">
   <polygon class="fil0" points="515,2282 1892,2282 1892,3614 515,3614 "/>
   <path class="fil1" d="M634 2396l1150 0 0 1113 -1150 0 0 -1113zm86 826c0,5 3,7 6,7 26,2 101,2 153,2 138,0 290,-85 290,-297 0,-162 -96,-277 -289,-277 -75,0 -130,1 -154,2 -5,1 -6,3 -6,7l0 556zm99 -472c20,-1 38,-2 61,-2 110,0 188,62 188,188 0,133 -78,204 -193,204 -22,0 -40,0 -56,-1l0 -389zm777 481c5,0 6,-2 8,-7l107 -415c1,-5 -2,-6 -5,-6l-75 0c-4,0 -6,1 -7,5 -43,185 -54,272 -63,324l-2 0c-6,-35 -16,-112 -62,-324 -1,-4 -3,-5 -6,-5l-86 0c-6,0 -6,1 -7,6 -49,211 -62,290 -68,320l-1 0c-6,-34 -17,-117 -62,-321 0,-5 -2,-5 -6,-5l-82 0c-4,0 -7,2 -5,6l97 415c2,5 2,7 10,7l81 0c5,0 7,-2 8,-7 35,-144 54,-228 71,-315l1 0c8,43 20,120 64,314 1,5 3,8 8,8l82 0z"/>
  </g>
 </g>
</svg>
