<?xml version="1.0" encoding="UTF-8"?>
<!DOCTYPE svg PUBLIC "-//W3C//DTD SVG 1.1//EN" "http://www.w3.org/Graphics/SVG/1.1/DTD/svg11.dtd">
<!-- Creator: CorelDRAW X7 -->
<svg xmlns="http://www.w3.org/2000/svg" xml:space="preserve" width="5.82677in" height="8.26772in" version="1.1" style="shape-rendering:geometricPrecision; text-rendering:geometricPrecision; image-rendering:optimizeQuality; fill-rule:evenodd; clip-rule:evenodd"
viewBox="0 0 5827 8268"
 xmlns:xlink="http://www.w3.org/1999/xlink">
 <defs>
  <style type="text/css">
   <![CDATA[
    .fil1 {fill:#552F1C}
    .fil0 {fill:#E79D20}
   ]]>
  </style>
 </defs>
 <g id="Layer_x0020_1">
  <metadata id="CorelCorpID_0Corel-Layer"/>
  <g id="_413646608">
   <rect class="fil0" x="826" y="1571" width="1868" height="1807"/>
   <path class="fil1" d="M987 1726l1559 0 0 1509 -1559 0 0 -1509zm799 912l67 197c3,5 6,7 12,7l131 0c7,0 8,-4 7,-11l-270 -757c-1,-6 -2,-7 -8,-7l-162 0c-5,0 -7,4 -7,8 -2,41 -6,52 -11,64l-240 691c-1,8 1,12 8,12l117 0c7,0 10,-2 13,-9l64 -195 279 0zm-242 -129c35,-107 82,-245 101,-324l1 0c23,83 78,247 102,324l-204 0zm501 327c0,7 3,10 12,10l121 0c8,0 11,-2 11,-9l0 -546c0,-7 -3,-8 -10,-8l-125 0c-6,0 -9,2 -9,8l0 545zm72 -630c49,0 81,-32 81,-79 0,-45 -29,-79 -80,-79 -47,0 -81,32 -81,79 0,47 31,79 80,79z"/>
  </g>
 </g>
</svg>
