<?xml version="1.0" encoding="UTF-8"?>
<!DOCTYPE svg PUBLIC "-//W3C//DTD SVG 1.1//EN" "http://www.w3.org/Graphics/SVG/1.1/DTD/svg11.dtd">
<!-- Creator: CorelDRAW X7 -->
<svg xmlns="http://www.w3.org/2000/svg" xml:space="preserve" width="5.82677in" height="8.26772in" version="1.1" style="shape-rendering:geometricPrecision; text-rendering:geometricPrecision; image-rendering:optimizeQuality; fill-rule:evenodd; clip-rule:evenodd"
viewBox="0 0 5827 8268"
 xmlns:xlink="http://www.w3.org/1999/xlink">
 <defs>
  <style type="text/css">
   <![CDATA[
    .fil1 {fill:#2D3246}
    .fil0 {fill:#B2D4E0}
   ]]>
  </style>
 </defs>
 <g id="Layer_x0020_1">
  <metadata id="CorelCorpID_0Corel-Layer"/>
  <g id="_528799392">
   <rect class="fil0" x="939" y="1614" width="1307" height="1265"/>
   <path class="fil1" d="M1052 1722l1091 0 0 1057 -1091 0 0 -1057zm572 799c5,0 7,-1 8,-7l14 -78c1,-3 -1,-5 -6,-5l-243 0 0 -447c0,-3 -1,-6 -4,-6l-89 0c-5,0 -6,4 -6,8l0 526c0,6 1,9 8,9l318 0zm81 -407c-4,0 -5,1 -5,5 4,27 5,75 5,110l0 285c0,4 1,7 7,7l86 0c5,0 7,-2 7,-7l0 -266c19,-24 68,-45 126,-43 6,0 8,-2 8,-6l0 -88c0,-5 -2,-5 -7,-5 -57,0 -104,29 -132,64 -1,-18 -4,-39 -8,-50 -2,-5 -4,-6 -9,-6l-78 0z"/>
  </g>
 </g>
</svg>
