<?xml version="1.0" encoding="UTF-8"?>
<!DOCTYPE svg PUBLIC "-//W3C//DTD SVG 1.1//EN" "http://www.w3.org/Graphics/SVG/1.1/DTD/svg11.dtd">
<!-- Creator: CorelDRAW X7 -->
<svg xmlns="http://www.w3.org/2000/svg" xml:space="preserve" width="5.82677in" height="8.26772in" version="1.1" style="shape-rendering:geometricPrecision; text-rendering:geometricPrecision; image-rendering:optimizeQuality; fill-rule:evenodd; clip-rule:evenodd"
viewBox="0 0 5827 8268"
 xmlns:xlink="http://www.w3.org/1999/xlink">
 <defs>
  <style type="text/css">
   <![CDATA[
    .fil1 {fill:#2D276D}
    .fil0 {fill:#83BEF8}
   ]]>
  </style>
 </defs>
 <g id="Layer_x0020_1">
  <metadata id="CorelCorpID_0Corel-Layer"/>
  <g id="_413625000">
   <rect class="fil0" x="1255" y="2395" width="1277" height="1236"/>
   <path class="fil1" d="M1365 2501l1066 0 0 1032 -1066 0 0 -1032zm234 757c0,4 1,6 5,6l77 0c4,0 5,-2 5,-6l0 -168c15,0 22,0 43,0 110,0 200,-56 200,-181 0,-90 -56,-173 -194,-173 -51,0 -103,1 -132,2 -3,0 -4,2 -4,6l0 514zm87 -439c8,0 28,-1 52,-1 66,0 104,34 104,93 0,74 -53,96 -113,96 -22,0 -31,0 -43,0l0 -188zm523 158c5,1 7,-1 7,-5l0 -71c0,-4 -1,-7 -5,-10 -19,-9 -55,-16 -101,-16 -101,0 -151,57 -151,119 0,58 31,94 119,126 50,21 66,33 66,54 0,21 -21,35 -63,35 -36,0 -80,-10 -115,-32 -3,-2 -6,0 -6,4l0 77c0,4 1,6 5,8 24,14 66,23 114,23 99,0 159,-48 159,-123 0,-58 -32,-94 -124,-128 -51,-20 -63,-32 -63,-50 0,-17 14,-35 57,-35 36,0 76,10 101,24z"/>
  </g>
 </g>
</svg>
