<?xml version="1.0" encoding="UTF-8"?>
<!DOCTYPE svg PUBLIC "-//W3C//DTD SVG 1.1//EN" "http://www.w3.org/Graphics/SVG/1.1/DTD/svg11.dtd">
<!-- Creator: CorelDRAW X7 -->
<svg xmlns="http://www.w3.org/2000/svg" xml:space="preserve" width="5.82677in" height="8.26772in" version="1.1" style="shape-rendering:geometricPrecision; text-rendering:geometricPrecision; image-rendering:optimizeQuality; fill-rule:evenodd; clip-rule:evenodd"
viewBox="0 0 5827 8268"
 xmlns:xlink="http://www.w3.org/1999/xlink">
 <defs>
  <style type="text/css">
   <![CDATA[
    .fil1 {fill:#2E001D}
    .fil0 {fill:#F92FC3}
   ]]>
  </style>
 </defs>
 <g id="Layer_x0020_1">
  <metadata id="CorelCorpID_0Corel-Layer"/>
  <g id="_528756536">
   <rect class="fil0" x="560" y="3050" width="1351" height="1307"/>
   <path class="fil1" d="M676 3162l1128 0 0 1092 -1128 0 0 -1092zm588 289c3,-5 2,-9 -3,-9l-96 0c-6,0 -8,3 -10,7 -39,70 -79,140 -117,211l-1 0c-38,-71 -81,-141 -118,-212 -3,-5 -5,-6 -11,-6l-104 0c-4,0 -6,4 -4,8l164 271 -167 273c-3,3 -3,9 3,9l100 0c5,0 8,-2 10,-7 40,-70 80,-143 119,-214l0 0c42,73 84,144 125,214 3,5 6,7 13,7l105 0c4,-1 7,-5 3,-9l-172 -280 161 -263zm246 560c51,0 105,-9 161,-33 4,-2 5,-4 5,-8 -2,-15 -3,-37 -3,-54l0 -516c0,-3 0,-5 -5,-5l-93 0c-3,0 -5,2 -5,6l0 175c-14,-2 -25,-2 -36,-2 -151,0 -243,98 -243,222 0,143 95,215 219,215zm60 -95c-15,5 -32,6 -49,6 -68,0 -124,-38 -124,-131 0,-83 57,-131 133,-131 15,0 29,1 40,6l0 250z"/>
  </g>
 </g>
</svg>
